<svg xmlns="http://www.w3.org/2000/svg" width="405" height="405" viewBox="0 0 405 405" version="1.1">
	<path d="M 58 16.133 C 58 19.139, 59.571 42.052, 61.491 67.050 C 63.411 92.047, 64.986 114.745, 64.991 117.489 L 65 122.479 82.500 105 C 92.125 95.387, 100 87.132, 100 86.656 C 100 86.180, 98.729 83.906, 97.175 81.604 C 95.621 79.302, 91.727 72.711, 88.521 66.959 C 85.315 61.207, 79.929 51.550, 76.551 45.500 C 73.173 39.450, 67.775 29.325, 64.555 23 C 61.334 16.675, 58.542 11.313, 58.350 11.083 C 58.157 10.854, 58 13.126, 58 16.133 M 341.235 33.336 C 335.040 44.976, 327.898 58.325, 325.364 63 C 322.831 67.675, 318.801 75.167, 316.408 79.649 L 312.059 87.797 328.280 103.857 C 337.201 112.689, 344.603 119.597, 344.728 119.208 C 345.104 118.039, 353.017 12.683, 352.748 12.417 C 352.612 12.283, 347.431 21.696, 341.235 33.336 M 84.740 109.760 L 66 128.519 66.040 205.010 L 66.080 281.500 113.176 334.750 L 160.272 388 182.636 388 L 205 388 205 239.500 L 205 91 154.240 91 L 103.480 91 84.740 109.760 M 206 239.500 L 206 388 228.750 387.960 L 251.500 387.921 298.250 334.755 L 345 281.590 345 205.035 L 345 128.480 326.240 109.740 L 307.481 91 256.740 91 L 206 91 206 239.500 M 108 184 L 108 207 135 207 L 162 207 162 184 L 162 161 135 161 L 108 161 108 184 M 248 184 L 248 207 275.500 207 L 303 207 303 184 L 303 161 275.500 161 L 248 161 248 184 M 114.528 164.862 C 117.291 167.469, 153.625 198.997, 157.124 201.822 L 160 204.145 160 183.572 L 160 163 136.278 163 C 113.104 163, 112.601 163.043, 114.528 164.862 M 250 183.057 C 250 202.252, 250.078 203.057, 251.817 201.807 C 255.406 199.225, 298 163.814, 298 163.411 C 298 163.185, 287.200 163, 274 163 L 250 163 250 183.057 M 110 184.326 L 110 205 133.714 205 C 153.623 205, 157.194 204.784, 155.964 203.657 C 155.159 202.918, 145.500 194.519, 134.500 184.991 C 123.500 175.464, 113.487 166.765, 112.250 165.660 L 110 163.651 110 184.326 M 279 182.107 C 267.175 191.997, 256.385 201.193, 255.023 202.544 L 252.545 205 276.773 205 L 301 205 301 184.500 C 301 173.225, 300.887 164.028, 300.750 164.063 C 300.613 164.098, 290.825 172.218, 279 182.107 M 160 345.500 L 160 348 173.500 348 L 187 348 187 359 L 187 370 189.500 370 L 192 370 192 356.500 L 192 343 176 343 L 160 343 160 345.500 M 219 356.500 L 219 370 221.500 370 L 224 370 224 359 L 224 348 237.500 348 L 251 348 251 345.500 L 251 343 235 343 L 219 343 219 356.500" stroke="none" fill="black" fill-rule="evenodd"/>
</svg>